#!OML:ASF E:\Steps\Project 1\Capture day 1\Session 2\Subject.ASF
:FULLY-SPECIFIED
:DEGREES
392
root 9.44465 15.7834 14.7487 -155.733 1.99429 178.74
lowerback -13.8263 -1.59289 -4.84736
upperback -0.810693 -1.09485 -0.999894
thorax 6.98553 -0.588594 1.47257
lowerneck 2.39342 -5.9771 0.629066
upperneck -7.51278 -7.8051 0.605216
head -2.79927 -3.85497 0.329834
rclavicle -1.27222e-014 -2.5842e-014
rhumerus -31.2998 1.23342 -87.3436
rradius 41.511
rwrist -3.00819
rhand -7.17288 -58.2787
rfingers 7.12502
rthumb -161.295 -267.399
lclavicle -1.27222e-014 -2.5842e-014
lhumerus -25.0785 -15.5666 84.4768
lradius 36.9792
lwrist 3.07452
lhand -23.6952 -14.6148
lfingers 7.12502
lthumb 2.77171 15.347
rfemur -42.5807 7.25389 17.559
rtibia 39.4808
rfoot -28.9375 -8.43543
rtoes -25.1826
lfemur -42.3279 -7.11492 -18.8901
ltibia 42.0365
lfoot -19.8911 7.4703
ltoes -42.3292
393
root 9.43583 15.8582 14.7029 -155.616 1.95832 178.864
lowerback -14.3558 -1.5061 -4.55773
upperback -0.374123 -1.00785 -0.97459
thorax 7.74051 -0.568317 1.33792
lowerneck 0.291288 -5.88994 0.760691
upperneck -6.98527 -7.68 0.275298
head -2.26015 -3.77249 0.114992
rclavicle 2.78299e-015 3.97569e-015
rhumerus -30.0215 0.521721 -87.156
rradius 40.2671
rwrist -2.53561
rhand -6.99869 -58.1383
rfingers 7.12502
rthumb -161.128 -267.243
lclavicle 2.78299e-015 3.97569e-015
lhumerus -24.1391 -15.6235 84.4467
lradius 36.5664
lwrist 3.09689
lhand -23.9314 -14.3123
lfingers 7.12502
lthumb 2.54363 15.6522
rfemur -41.5805 7.37536 17.5791
rtibia 37.7407
rfoot -28.4634 -8.18494
rtoes -24.5637
lfemur -41.3457 -7.32045 -18.6895
ltibia 40.2493
lfoot -19.5431 7.27886
ltoes -40.0806
394
root 9.42645 15.9294 14.6579 -155.474 1.81431 178.902
lowerback -15.1355 -1.65487 -4.54925
upperback -0.9553 -1.14879 -0.745019
thorax 7.56413 -0.607729 1.54583
lowerneck 2.13093 -6.14036 0.604844
upperneck -7.90842 -7.98824 0.83306
head -2.87319 -3.94245 0.410635
rclavicle -1.59028e-015 9.93923e-015
rhumerus -31.466 0.216516 -86.7677
rradius 39.6524
rwrist -2.02373
rhand -6.81909 -57.7915
rfingers 7.12502
rthumb -160.955 -266.879
lclavicle -1.59028e-015 9.93923e-015
lhumerus -25.819 -14.9623 85.1297
lradius 36.3522
lwrist 2.81999
lhand -23.2825 -14.6655
lfingers 7.12502
lthumb 3.17024 15.2906
rfemur -40.5706 7.44207 17.4764
rtibia 35.9048
rfoot -28.0123 -7.76279
rtoes -22.7893
lfemur -40.4672 -7.58275 -18.5639
ltibia 38.5587
lfoot -18.9065 7.11969
ltoes -38.7172
395
root 9.41899 15.9962 14.6133 -155.376 1.80695 178.883
lowerback -15.7623 -1.43362 -4.5075
upperback -0.449242 -0.823989 -0.887743
thorax 8.4402 -0.480043 1.42476
lowerneck 0.173281 -6.20481 1.13843
upperneck -7.48311 -8.05353 0.519182
head -2.41113 -3.96366 0.144078
rclavicle 2.38542e-015 -4.77083e-015
rhumerus -30.4523 -1.45737 -86.5489
rradius 38.6567
rwrist -1.01663
rhand -6.748 -57.3127
rfingers 7.12502
rthumb -160.887 -266.394
lclavicle 2.38542e-015 -4.77083e-015
lhumerus -24.6824 -15.5172 85.0205
lradius 35.8069
lwrist 2.901
lhand -23.3446 -15.0783
lfingers 7.12502
lthumb 3.11029 14.8788
rfemur -39.5709 7.60387 17.2785
rtibia 34.103
rfoot -27.5201 -7.41929
rtoes -20.5966
lfemur -39.4682 -7.75866 -18.5709
ltibia 36.7098
lfoot -18.0426 7.56193
ltoes -40.5083
396
root 9.41389 16.0589 14.5702 -155.271 1.90029 178.911
lowerback -16.3701 -1.46437 -4.53941
upperback -0.536301 -0.818917 -0.807948
thorax 8.68841 -0.477505 1.52403
lowerneck 0.0986428 -6.19019 1.14343
upperneck -7.39266 -8.03338 0.586682
head -2.36467 -3.95715 0.159051
rclavicle -4.27387e-015 -1.70955e-014
rhumerus -30.6546 -2.11068 -86.3459
rradius 37.8307
rwrist -0.285911
rhand -7.21464 -56.5671
rfingers 7.12502
rthumb -161.336 -265.692
lclavicle -4.27387e-015 -1.70955e-014
lhumerus -25.0525 -15.2253 85.2861
lradius 35.417
lwrist 2.9366
lhand -23.772 -15.6537
lfingers 7.12502
lthumb 2.69751 14.309
rfemur -38.6208 7.75243 17.1824
rtibia 32.3158
rfoot -26.8811 -7.33399
rtoes -20.0555
lfemur -38.4613 -7.92329 -18.5194
ltibia 34.8533
lfoot -17.3219 8.11333
ltoes -42.3665
397
root 9.40951 16.1154 14.5291 -155.058 1.91464 178.974
lowerback -17.044 -1.44833 -4.46059
upperback -0.657572 -0.759496 -0.781235
thorax 8.92944 -0.43994 1.51718
lowerneck 0.125929 -6.15468 1.16685
upperneck -7.39289 -7.98435 0.60742
head -2.36956 -3.93448 0.161616
rclavicle 7.95139e-016 -1.74931e-014
rhumerus -30.943 -2.84409 -86.1531
rradius 37.2211
rwrist 0.00515414
rhand -7.74806 -55.8888
rfingers 7.12502
rthumb -161.849 -265.062
lclavicle 7.95139e-016 -1.74931e-014
lhumerus -25.3631 -15.0917 85.4594
lradius 35.0567
lwrist 2.92219
lhand -23.7125 -15.5848
lfingers 7.12502
lthumb 2.75498 14.3771
rfemur -37.7848 7.87095 17.1563
rtibia 30.5143
rfoot -26.2345 -7.36356
rtoes -20.3754
lfemur -37.6211 -8.01848 -18.4122
ltibia 33.0367
lfoot -16.5078 8.38744
ltoes -43.6137
398
root 9.40482 16.1679 14.493 -154.818 1.94738 179.045
lowerback -17.6543 -1.39395 -4.3818
upperback -0.788787 -0.651898 -0.768064
thorax 9.11977 -0.377522 1.50992
lowerneck -0.210635 -5.86427 1.01682
upperneck -6.88626 -7.63973 0.16424
head -2.15382 -3.7529 0.019188
rclavicle -1.49089e-015 1.03368e-014
rhumerus -31.216 -3.66465 -85.9234
rradius 36.6195
rwrist 0.303567
rhand -7.39951 -56.5023
rfingers 7.12502
rthumb -161.513 -265.644
lclavicle -1.49089e-015 1.03368e-014
lhumerus -25.7395 -15.0985 85.6437
lradius 34.9007
lwrist 2.82887
lhand -23.5585 -14.8588
lfingers 7.12502
lthumb 2.90377 15.1012
rfemur -37.0734 8.04313 17.1145
rtibia 28.8831
rfoot -25.6584 -7.33577
rtoes -20.2713
lfemur -36.8147 -7.96025 -18.3275
ltibia 31.1698
lfoot -15.728 8.50405
ltoes -44.1315
399
root 9.40129 16.2172 14.4565 -154.622 1.99246 179.065
lowerback -17.245 -1.40544 -4.42063
upperback -1.56806 -0.64734 -0.702622
thorax 8.04224 -0.319801 1.61819
lowerneck -0.669455 -6.05264 1.24324
upperneck -6.1478 -7.9079 0.307982
head -1.83724 -3.90616 0.00122238
rclavicle -8.44835e-015 1.43125e-014
rhumerus -32.5349 -4.2877 -85.5835
rradius 36.1415
rwrist 0.692545
rhand -6.73264 -57.7504
rfingers 7.12502
rthumb -160.872 -266.83
lclavicle -8.44835e-015 1.43125e-014
lhumerus -27.3424 -14.9997 86.146
lradius 34.9717
lwrist 2.70554
lhand -23.5674 -14.8726
lfingers 7.12502
lthumb 2.8951 15.0875
rfemur -36.267 8.15512 17.0422
rtibia 27.1705
rfoot -25.0357 -7.35957
rtoes -20.3984
lfemur -36.0187 -7.93103 -18.2835
ltibia 29.5152
lfoot -15.2962 8.54406
ltoes -43.872
400
root 9.39973 16.259 14.415 -154.443 1.97039 179.04
lowerback -18.3393 -1.44472 -4.51007
upperback -1.38593 -0.613435 -0.64621
thorax 8.84697 -0.323162 1.72825
lowerneck -0.454845 -5.87358 1.13871
upperneck -6.44946 -7.66603 0.165605
head -1.97313 -3.77632 -0.0163386
rclavicle 7.85199e-015 9.93923e-015
rhumerus -32.3125 -5.04914 -85.3195
rradius 35.382
rwrist 1.07762
rhand -6.5708 -57.9608
rfingers 7.12502
rthumb -160.716 -267.025
lclavicle 7.85199e-015 9.93923e-015
lhumerus -27.2567 -14.8175 86.2489
lradius 34.6767
lwrist 2.7125
lhand -23.2729 -15.366
lfingers 7.12502
lthumb 3.1796 14.59
rfemur -35.3156 8.19291 16.9571
rtibia 25.2716
rfoot -24.4378 -7.39988
rtoes -20.3923
lfemur -35.2317 -7.98678 -18.2618
ltibia 27.9324
lfoot -14.9407 8.46784
ltoes -43.2913
401
root 9.39981 16.2976 14.3804 -154.245 1.89753 179.027
lowerback -18.9514 -1.4791 -4.46377
upperback -1.49552 -0.604966 -0.685616
thorax 9.06406 -0.30678 1.65904
lowerneck -0.578202 -6.03729 1.29634
upperneck -6.49437 -7.86599 0.423332
head -1.96263 -3.88361 0.0376071
rclavicle 8.34896e-015 -1.94809e-014
rhumerus -32.5134 -5.88742 -85.1727
rradius 34.7223
rwrist 1.42756
rhand -6.84733 -57.5744
rfingers 7.12502
rthumb -160.982 -266.665
lclavicle 8.34896e-015 -1.94809e-014
lhumerus -27.5826 -14.7469 86.2937
lradius 34.3492
lwrist 2.70601
lhand -22.7743 -14.5691
lfingers 7.12502
lthumb 3.6611 15.3792
rfemur -34.4196 8.23021 16.8823
rtibia 23.3967
rfoot -23.8045 -7.43982
rtoes -19.905
lfemur -34.4823 -8.06465 -18.2045
ltibia 26.2307
lfoot -14.3685 8.42285
ltoes -42.6103
402
root 9.39522 16.3281 14.3355 -154.084 2.01107 179.14
lowerback -19.0749 -1.4463 -4.38832
upperback -1.96375 -0.535868 -0.630386
thorax 8.61342 -0.233582 1.70005
lowerneck -0.859715 -6.01235 1.33732
upperneck -5.97836 -7.85567 0.3494
head -1.75129 -3.88419 -0.0119128
rclavicle 2.48481e-015 8.74653e-015
rhumerus -33.3698 -6.64364 -84.7966
rradius 34.3005
rwrist 1.86736
rhand -6.96299 -57.6039
rfingers 7.12502
rthumb -161.094 -266.705
lclavicle 2.48481e-015 8.74653e-015
lhumerus -28.6298 -14.7678 86.671
lradius 34.1099
lwrist 2.50556
lhand -23.4664 -15.6507
lfingers 7.12502
lthumb 2.9927 14.308
rfemur -33.5433 8.53042 16.8593
rtibia 21.6367
rfoot -23.1748 -7.51397
rtoes -19.7873
lfemur -33.5947 -8.06615 -18.0927
ltibia 24.5245
lfoot -13.7677 8.58683
ltoes -41.9955
403
root 9.39011 16.3535 14.2943 -153.892 2.00665 179.172
lowerback -19.3605 -1.47888 -4.33018
upperback -2.3274 -0.538159 -0.588273
thorax 8.37177 -0.201412 1.71538
lowerneck -1.20962 -5.66365 1.15089
upperneck -4.98509 -7.44473 -0.100989
head -1.38251 -3.68051 -0.154618
rclavicle -1.59028e-015 7.95139e-016
rhumerus -34.0265 -7.44342 -84.388
rradius 33.6455
rwrist 2.41767
rhand -7.14024 -57.4135
rfingers 7.12502
rthumb -161.264 -266.531
lclavicle -1.59028e-015 7.95139e-016
lhumerus -29.4536 -14.8101 86.9425
lradius 33.9651
lwrist 2.76186
lhand -23.1244 -15.1785
lfingers 7.12502
lthumb 3.32292 14.7753
rfemur -32.7951 8.81414 16.7589
rtibia 20.0648
rfoot -22.6333 -7.75271
rtoes -19.8795
lfemur -32.8715 -8.12629 -18.0626
ltibia 23.0699
lfoot -13.2328 8.65839
ltoes -42.0878
404
root 9.38608 16.3802 14.2603 -153.848 1.94936 179.061
lowerback -19.5528 -1.55516 -4.43376
upperback -2.57354 -0.576291 -0.566113
thorax 8.21153 -0.199921 1.79058
lowerneck -1.26555 -5.76554 1.26938
upperneck -5.14164 -7.56988 0.0178828
head -1.42338 -3.74424 -0.135057
rclavicle -5.26779e-015 -8.74653e-015
rhumerus -34.4975 -8.17314 -83.986
rradius 32.8328
rwrist 2.78892
rhand -7.60275 -56.8385
rfingers 7.12502
rthumb -161.709 -265.999
lclavicle -5.26779e-015 -8.74653e-015
lhumerus -30.0874 -14.7384 87.1774
lradius 33.6387
lwrist 2.81035
lhand -22.6494 -14.3665
lfingers 7.12502
lthumb 3.78165 15.5797
rfemur -31.9177 8.78256 16.6014
rtibia 18.5025
rfoot -22.0923 -7.80675
rtoes -19.6346
lfemur -32.0773 -8.26909 -18.1807
ltibia 21.6506
lfoot -12.7039 8.78601
ltoes -42.9998
405
root 9.38242 16.4011 14.2192 -153.82 2.0198 179.032
lowerback -19.8258 -1.59055 -4.54287
upperback -2.81503 -0.555932 -0.508917
thorax 8.09657 -0.170986 1.92194
lowerneck -1.04398 -5.86966 1.32809
upperneck -5.42499 -7.69164 0.243415
head -1.54507 -3.80812 -0.0619858
rclavicle -1.98785e-015 7.95139e-016
rhumerus -34.9917 -8.88812 -83.5615
rradius 32.1965
rwrist 3.21325
rhand -7.69682 -56.6922
rfingers 7.12502
rthumb -161.799 -265.861
lclavicle -1.98785e-015 7.95139e-016
lhumerus -30.7395 -14.3755 87.3617
lradius 33.363
lwrist 2.82114
lhand -22.43 -14.7218
lfingers 7.12502
lthumb 3.99353 15.2205
rfemur -30.8891 8.36924 16.6462
rtibia 16.6833
rfoot -21.3877 -7.3157
rtoes -19.3217
lfemur -31.1781 -8.36252 -18.2361
ltibia 20.1649
lfoot -12.2991 8.96353
ltoes -43.3336
406
root 9.37593 16.4125 14.1704 -153.756 2.24094 179.248
lowerback -21.2492 -1.47581 -4.18556
upperback -2.36282 -0.407936 -0.571269
thorax 9.35247 -0.127113 1.68231
lowerneck -1.07425 -5.54679 1.13062
upperneck -5.44371 -7.26979 -0.0350156
head -1.54666 -3.58738 -0.120898
rclavicle 1.09332e-014 -1.11319e-014
rhumerus -34.3794 -9.88279 -83.4992
rradius 31.4935
rwrist 3.76457
rhand -7.44175 -56.798
rfingers 7.12502
rthumb -161.554 -265.943
lclavicle 1.09332e-014 -1.11319e-014
lhumerus -30.3682 -14.2045 87.1161
lradius 33.0519
lwrist 2.67446
lhand -22.6737 -15.3812
lfingers 7.12502
lthumb 3.75824 14.5654
rfemur -30.1866 8.8388 16.7376
rtibia 15.5151
rfoot -20.9945 -7.40702
rtoes -19.0121
lfemur -30.1625 -8.37457 -18.068
ltibia 18.5125
lfoot -11.9204 9.23457
ltoes -42.9974
